<svg xmlns="http://www.w3.org/2000/svg" viewBox="0 0 480 480" role="img" aria-labelledby="title">
  <title>DrivenByFaith3D Logo</title>
  <defs>
    <radialGradient id="bgGradient" cx="50%" cy="40%" r="70%">
      <stop offset="0%" stop-color="#4d4d4f" />
      <stop offset="65%" stop-color="#2f2f31" />
      <stop offset="100%" stop-color="#0e0e10" />
    </radialGradient>
    <linearGradient id="silver" x1="0%" x2="0%" y1="0%" y2="100%">
      <stop offset="0%" stop-color="#f5f5f5" />
      <stop offset="100%" stop-color="#d9d9d9" />
    </linearGradient>
    <filter id="shadow" x="-15%" y="-15%" width="130%" height="130%">
      <feDropShadow dx="0" dy="12" stdDeviation="9" flood-color="#000" flood-opacity="0.45" />
    </filter>
  </defs>

  <rect width="480" height="480" fill="url(#bgGradient)" rx="48" />

  <g filter="url(#shadow)" transform="translate(40 30)">
    <path fill="#111" stroke="url(#silver)" stroke-width="10" d="M60 80h280c12 0 22 10 22 22v196h-36V122H96v176H60V102c0-12 10-22 22-22z" />
    <rect x="116" y="140" width="228" height="188" rx="16" fill="#111" stroke="url(#silver)" stroke-width="10" />
    <rect x="204" y="90" width="52" height="44" rx="10" fill="url(#silver)" stroke="#111" stroke-width="6" />
    <path d="M230 134v64" stroke="url(#silver)" stroke-width="12" stroke-linecap="round" />
    <path d="M230 188h-38v40h26v60h24v-60h26v-40h-38z" fill="url(#silver)" stroke="#111" stroke-width="6" />
    <path d="M136 330h216c14 0 26 12 26 26v34H110v-34c0-14 12-26 26-26z" fill="#111" stroke="url(#silver)" stroke-width="10" />
    <path d="M110 390h268v32c0 14-12 26-26 26H136c-14 0-26-12-26-26v-32z" fill="#1d1d1f" stroke="#111" stroke-width="6" />
  </g>

  <g filter="url(#shadow)">
    <text x="240" y="72" text-anchor="middle" font-family="'Poppins', 'Segoe UI', sans-serif" font-size="52" font-weight="700" fill="#f5f5f5" stroke="#111" stroke-width="4">DrivenByFaith</text>
    <text x="240" y="428" text-anchor="middle" font-family="'Poppins', 'Segoe UI', sans-serif" font-size="96" font-weight="700" fill="url(#silver)" stroke="#111" stroke-width="8">3D</text>
  </g>
</svg>
